<?xml version="1.0" standalone="no"?>
<!DOCTYPE svg PUBLIC "-//W3C//DTD SVG 20010904//EN"
 "http://www.w3.org/TR/2001/REC-SVG-20010904/DTD/svg10.dtd">
<svg version="1.0" xmlns="http://www.w3.org/2000/svg"
 width="700.000000pt" height="700.000000pt" viewBox="0 0 700.000000 700.000000"
 preserveAspectRatio="xMidYMid meet">
<metadata>
Created by potrace 1.14, written by Peter Selinger 2001-2017
</metadata>
<g transform="translate(0.000000,700.000000) scale(0.100000,-0.100000)"
fill="#000000" stroke="none">
<path d="M5088 4865 c-2 -1 -43 -5 -93 -9 -207 -14 -375 -54 -515 -123 -118
-59 -231 -164 -274 -257 -83 -179 -72 -389 30 -546 53 -80 174 -195 294 -276
121 -82 148 -97 370 -212 462 -238 610 -352 652 -502 17 -60 15 -118 -6 -173
-40 -105 -152 -152 -356 -151 -143 0 -175 6 -245 39 -66 32 -79 43 -106 94
-19 38 -22 59 -23 165 -1 85 -5 122 -13 126 -7 3 -160 5 -340 4 l-328 0 -2
-117 c-2 -131 13 -209 53 -292 49 -99 157 -201 279 -262 42 -21 184 -72 219
-79 12 -2 32 -6 46 -9 145 -31 246 -39 470 -40 194 0 318 7 410 25 30 6 69 13
85 16 233 44 452 182 530 333 79 155 83 356 9 504 -82 163 -278 324 -599 492
-71 37 -173 90 -225 117 -318 167 -488 303 -522 421 -19 66 -14 158 11 210 25
51 70 85 151 113 82 28 302 26 382 -3 123 -45 159 -96 164 -233 1 -47 3 -88 3
-92 1 -5 154 -8 341 -8 265 0 340 3 341 13 16 268 -90 457 -321 576 -64 33
-179 76 -230 86 -104 20 -198 35 -255 41 -67 6 -382 13 -387 9z"/>
<path d="M829 4831 c-1 -3 -2 -581 -3 -1283 l-2 -1278 958 0 958 0 -2 183 -3
182 -593 0 -592 0 -1 25 c0 14 -1 509 -2 1100 l-2 1075 -357 1 c-197 0 -359
-2 -359 -5z"/>
<path d="M2730 4694 c-48 -21 -97 -71 -111 -113 -7 -20 -13 -106 -14 -196 -2
-88 -3 -165 -4 -172 -3 -30 -47 -38 -211 -39 -136 -1 -173 -4 -203 -19 -41
-19 -93 -74 -108 -112 -5 -13 -9 -108 -9 -210 0 -179 1 -188 24 -227 52 -89
102 -106 311 -106 212 0 198 16 201 -216 2 -174 2 -176 31 -222 20 -34 43 -54
79 -73 50 -25 56 -26 230 -25 200 2 228 9 283 72 41 46 48 79 49 224 1 69 1
142 1 163 1 23 8 44 21 57 18 18 33 20 178 20 86 0 175 5 197 11 52 14 118 83
132 135 5 21 9 116 8 210 l-1 172 -30 48 c-20 33 -44 55 -76 72 -44 23 -58 24
-217 26 -224 1 -210 -13 -213 206 -1 91 -6 180 -12 198 -11 39 -62 94 -107
116 -45 23 -377 23 -429 0z"/>
</g>
</svg>
