<?xml version="1.0" encoding="utf-8"?>
<!-- Generator: Adobe Illustrator 28.0.0, SVG Export Plug-In . SVG Version: 6.00 Build 0)  -->
<svg version="1.1" id="Calque_1" xmlns="http://www.w3.org/2000/svg" xmlns:xlink="http://www.w3.org/1999/xlink" x="0px" y="0px"
	 viewBox="0 0 595.3 778.1" style="enable-background:new 0 0 595.3 778.1;" xml:space="preserve">
<style type="text/css">
	.st0{fill:#FFFFFF;}
</style>
<g>
	<path class="st0" d="M406.6,324.3c14,2.5,26.3,7.2,36.8,16c30.6,25.5,36.5,68.4,12.2,99.8c-17.9,23.3-37.5,45.3-56.3,67.9
		c-6.3,7.6-12.5,15.2-19.5,23.8c2.6,0.2,4.5,0.5,6.3,0.5c14,0.1,28,0.1,41.9,0.2c28.2,0.3,51,23.7,52.6,51.8
		c2,33.4-27.3,63.4-61.6,63.4c-80,0-159.9,0.1-239.9,0c-32.3,0-61.8-26.6-65.6-58.9c-0.7-5.5-1-11.1-1.1-16.7
		c-0.1-85.9,0.3-171.8-0.1-257.8c-0.3-51.9,23.5-88.6,68.4-112.6c8.7-4.6,17.9-8.3,27-12c4.1-1.6,5.9-3.4,5.5-8.3
		c-1.7-20.7,0.3-40.9,9.8-59.8c17.3-34.7,45.3-54.9,83.7-60.1c29.7-4,56.9,3,81,20.8c22.2,16.5,35.7,38.7,40.9,65.7
		c5.4,27.8,1.2,54.3-12.9,79.4C444.7,262.4,433.8,294,406.6,324.3z M147.4,576.9c0,5.1,1.1,10.5,3.1,15.1
		c5.8,13.6,15.8,21.4,31.4,21.4c50.1-0.2,100.3,0,150.4,0c30.2,0,60.4,0,90.6-0.3c12-0.1,22.4-9.8,24-21.6
		c2-14.3-8.4-25.3-24.3-25.2c-30.4,0.1-60.7,0.6-91.1,1c-8,0.1-14.3-4.5-13.9-11.9c0.2-4,2.7-8.5,5.4-11.7
		c22.3-26.5,44.9-52.7,67.3-79.1c13.1-15.5,26.5-30.8,39-46.7c10.8-13.7,9.9-31.2-0.9-44.9c-9.7-12.3-32.4-20-47.1-15.7
		c-1.3,0.4-2.7,1.4-3.6,2.4c-10.9,13.1-21.8,26.4-33.5,40.6c2.4,0.1,3.5,0.3,4.5,0.3c6.9-0.2,12.6,1.9,15.6,8.4
		c3,6.6,0.4,12.2-4.1,17.3c-5.1,5.7-10,11.5-15,17.3c-25,29.3-50,58.7-75,88c-8.8,10.3-17.6,20.7-26.9,30.6c-6.6,6.9-17.9,7-24.3,1
		c-6.4-5.9-6.7-15.3-0.4-23.1c8.6-10.7,17.5-21.2,26.3-31.9c2.4-2.9,4.8-5.7,7.1-8.6c2.3-2.9,4.6-5.7,6.9-8.6
		c-17.4,6.8-34.9,5.4-52.3,3.6c-8.9-0.9-14.5-9.6-13.6-19.4c0.8-8.1,6.7-13,15.8-13.1c6.9-0.1,13.8,0.1,20.7,0
		c12.1-0.2,22.5-4.6,30.5-13.8c5.3-6,10.4-12.2,15.5-18.4c33.4-40.7,66.9-81.4,100.1-122.3c7.5-9.2,15.1-18.5,21.3-28.6
		c5.7-9.2,2.8-18.7-5.6-25.7c-26.8,22.5-57.6,29.4-91.4,22.7c-33.8-6.7-58.9-26.2-75.7-56.4c-15.4,4.9-29.2,12-41.8,21.5
		c-21.8,16.4-35.3,37.7-35.4,65.7 M396.8,171.1c1.5-40.3-31.4-77-75.7-76.8c-41.1,0.1-74.3,33.8-74.2,75.4
		c0.1,37.8,29.9,74.4,75.8,74.3C369.1,244,398.7,205.1,396.8,171.1z"/>
	<path class="st0" d="M189.7,361.1c0-15.5-0.1-30.9,0-46.4c0.1-10.1,4.3-14.4,14.2-14.5c27.9-0.3,55.9-0.4,83.8-0.5
		c1.5,0,3,0.4,4.4,0.5c5.4,0.2,9.2,2.8,11.2,7.8c1.9,4.8,0.4,9-2.8,12.8c-12.2,14.5-24.4,29-36.5,43.6c-13.7,16.4-27.2,33-40.8,49.5
		c-5.4,6.5-11.7,10.8-20.7,9.5c-7.1-1.1-12.4-6.7-12.5-14.2c-0.2-16-0.1-32-0.1-48C189.8,361.1,189.7,361.1,189.7,361.1z
		 M243.7,334.6c-7.3,0-13.2,0-19.1,0c0,7.9,0,15.4,0,23.9C231.3,350,237.2,342.7,243.7,334.6z"/>
	<path class="st0" d="M12.8,428c0-89.6,0.1-179.3-0.1-268.9c0-15.3,1.7-30.1,9.4-43.6C35.2,92.4,55.7,82,81.7,80.3
		c22.6-1.5,43.9,2.6,64.2,12.9c12.8,6.4,26.2,11.4,39,17.8c11,5.5,13.2,16.6,6,25.5c-4.7,5.8-12.7,7.2-21.5,3.5
		c-14.4-6.1-28.9-11.8-42.9-18.7c-15.2-7.5-31.1-8.7-47.3-7.2c-19.2,1.8-31,16.1-31.3,37.5c-0.4,24.2-0.1,48.5-0.1,72.7
		c0,159,0,317.9,0,476.9c0,13.6,3.8,25.5,16.5,32.5c3.6,2,7.9,3.3,12,4c9.1,1.7,15.3,7.6,15,15.1c-0.4,9.1-7.1,16-16.6,16.3
		c-24.4,0.6-41.7-11.5-53.7-31.8c-7-11.9-8.3-25.2-8.3-38.8c0.1-72.7,0.1-145.4,0.1-218C12.7,463,12.7,445.5,12.8,428
		C12.8,428,12.8,428,12.8,428z"/>
	<path class="st0" d="M581.8,433.5c0,89.3,0,178.5,0,267.8c0,16.4-0.6,32.7-5.1,48.6c-1.9,6.8-5.4,12.2-12.2,14.9
		c-10.7,4.1-22.8-4.2-20.9-15.5c5.4-31.7,2.9-63.6,2.9-95.3c0.4-164.2,0.2-328.3,0.2-492.5c0-7.6-0.1-15.3-1.4-22.8
		c-2.5-14.6-14.6-24.5-29.5-24.8c-8-0.2-16,0.1-24-0.2c-13.5-0.5-21-10.6-16.9-22.5c1.9-5.6,5.9-9.7,11.7-9.8
		c15-0.3,30.5-2.1,44.9,1c27.1,5.8,43.9,24.5,48.2,51.6c2.9,18,2.2,36.7,2.2,55.1c0.2,81.4,0.1,162.9,0.1,244.3
		C581.9,433.5,581.8,433.5,581.8,433.5z"/>
	<path class="st0" d="M224.4,76.5c-0.2,10.6-12.3,22.9-26.1,14.4c-10.9-6.8-21.4-14.1-32-21.3C161,65.9,155.7,62,150.6,58
		c-6.9-5.5-8.4-14.1-4.3-21c4.2-6.9,13.4-10.2,20.9-6.4c7.1,3.6,13.6,8.3,20.3,12.7c9.4,6.3,18.7,12.7,28,19.2
		C220.3,65.9,224.4,69.9,224.4,76.5z"/>
	<path class="st0" d="M473.7,45.6c-2,3.9-3.4,8.1-6,11.5c-9,11.8-18.3,23.4-27.7,34.9c-4.7,5.7-10.9,8.6-18.3,6.1
		c-6.3-2.2-10.9-6.8-10.7-13.5c0.2-4.9,1.9-10.4,4.7-14.3c8-11.2,16.8-21.8,25.4-32.5c7.3-9,16.1-11.1,24.3-5.8
		C469.9,34.9,472.6,39.8,473.7,45.6z"/>
	<path class="st0" d="M463.1,213.9c3.2,1.2,7.2,2.1,10.7,4c12,6.8,23.8,13.7,35.5,20.9c6,3.7,10.1,9,9,16.6
		c-1.2,7.8-6,12.9-13.7,14.2c-3.4,0.6-7.6-0.1-10.6-1.7c-13.9-7.8-27.8-15.8-41.2-24.4c-10.8-7-9.2-22.1,2.4-27.6
		C457.3,214.9,459.8,214.7,463.1,213.9z"/>
	<path class="st0" d="M466,189.9c-12.2,0.1-18.6-4.9-20.2-12.5c-1.9-9.4,1.2-16.6,9.8-19.2c11.1-3.4,22.4-6.2,33.8-8.5
		c8.6-1.7,15.5,2.8,17.9,10.4c2.5,7.9-0.4,16.9-8,19.7C487.2,184.3,474.6,187.4,466,189.9z"/>
	<path class="st0" d="M328.6,28.1c0,9.4-7.5,16.8-17.1,16.9c-9.3,0.1-16.8-7.5-16.6-17.1c0.1-9.6,7.4-16.8,17-16.9
		C321.3,11,328.6,18.5,328.6,28.1z"/>
	<path class="st0" d="M115.7,770.6c-4.9-0.6-7.8-2.2-8.9-4.8c-1.1-2.7-1.1-5.6-0.1-8.8v-69c-1.8,0-3.4-0.5-4.8-1.4
		c-1.4-1-2.5-2.2-3.4-3.7c-0.8-1.5-1.3-3.1-1.3-4.8c0-1.8,0.5-3.4,1.5-4.8c2.3-3.4,5.2-6.1,8.8-8c3.6-1.9,7.3-3.5,11.1-4.8
		c6-1.9,12-3,18.1-3.2c6.1-0.2,12,1,17.9,3.7c5.3,2.5,9.5,5.7,12.6,9.7c3.1,4,5,8.2,5.8,12.7c0.8,4.5,0.4,9.1-1.2,13.8
		c-1.6,4.7-4.4,9.1-8.5,13.2c5.3,3.4,9.1,7.4,11.4,12.1c2.3,4.7,3.2,9.5,2.8,14.5c-0.4,5-2,9.8-4.8,14.4c-2.8,4.6-6.5,8.7-11.3,12.1
		c-2.8,2-6.1,3.6-9.9,4.7c-3.8,1.1-7.7,1.8-11.7,2.3c-4,0.5-8,0.7-12,0.7c-4,0-7.6-0.1-10.9-0.3L115.7,770.6z M127.4,701.3
		c2,0,4.1,0,6.1,0s4-0.2,6-0.6c2-0.4,3.9-1,5.8-2c1.9-0.9,3.5-2.2,5-3.9c2.2-2.4,2.9-4.9,2.3-7.6c-0.6-2.7-2.2-4.8-4.8-6.4
		c-2.9-1.9-6.3-2.9-10-3c-3.7-0.1-7.2,0.4-10.4,1.3V701.3z M151.9,727.5c-2-1.4-4-2.4-5.9-3.1c-1.9-0.7-3.9-1.1-5.9-1.4
		c-2-0.2-4-0.3-6-0.2c-2,0.1-4.2,0.2-6.6,0.3v27.2c2.5,0,5.2-0.1,8-0.3c2.8-0.2,5.5-0.6,8.2-1.4c2.6-0.7,5-1.8,7.3-3.1
		c2.3-1.4,4.1-3.2,5.4-5.6c0.3-2.7,0.3-5.1-0.2-7.1C155.6,731,154.2,729.2,151.9,727.5z"/>
	<path class="st0" d="M273,706.1c2.3,0.7,4.2,1.8,5.8,3.3c1.6,1.5,2.6,3.2,3.1,5.1s0.4,3.7-0.3,5.6c-0.7,1.9-2.3,3.5-4.7,5
		c-0.2,0.3-0.3,1.7-0.2,4.2c0.1,2.4,0.2,5.2,0.3,8.4c0.1,3.2,0,6.4-0.3,9.6c-0.2,3.2-0.7,5.8-1.5,7.6c-0.8,1.5-1.8,2.8-2.9,3.9
		c-1.1,1.1-2.3,2.2-3.6,3.2c-4.2,3.5-8.7,6.2-13.4,8.1c-4.8,1.9-9.6,3-14.6,3.3c-5,0.3-10-0.2-15-1.5c-5-1.4-9.9-3.5-14.5-6.5
		c-5.9-3.7-10.8-8.6-14.9-14.4c-4-5.9-6.9-12.2-8.8-19c-1.1-4.3-1.8-8.8-2-13.5c-0.2-4.7,0.2-9.3,1.1-13.9c0.9-4.6,2.4-9,4.4-13.2
		c2-4.2,4.6-8,7.6-11.4c3.6-4,7.8-7.2,12.5-9.9c4.7-2.6,9.5-4.9,14.5-6.8c3.8-1.6,7.8-2.8,11.9-3.6c4.1-0.8,8.2-1.1,12.4-0.8
		c3.2,0.2,6.6,0.8,10.3,1.6c3.7,0.8,6.8,2.4,9.4,4.5c1.2,1,2.3,2.3,3.1,3.7c0.8,1.5,1.4,3,1.5,4.5s0,3-0.6,4.4
		c-0.6,1.4-1.6,2.7-3.1,3.8c-1.5,1.1-3,1.8-4.7,2c-1.6,0.2-3.3,0.1-5-0.3c-1.7-0.4-3.4-0.9-5.1-1.6c-1.7-0.7-3.3-1.2-4.8-1.7
		c-1.2-0.5-2.6-0.7-4-0.6c-1.4,0.1-2.8,0.2-4.2,0.4c-4,1.1-8,2.5-12,4.2c-4,1.6-7.7,3.7-11.1,6c-3.4,2.4-6.3,5.2-8.8,8.5
		c-2.4,3.3-4,7.2-4.7,11.9c-0.9,5.8-0.6,11.5,0.8,17.2c1.5,5.7,4.2,10.7,8.2,15c2.6,2.8,5.6,5.1,9.1,6.9c3.5,1.8,7.1,2.8,10.8,3.1
		c3.7,0.3,7.4-0.1,11-1.2c3.6-1.1,6.9-3.1,9.7-5.9V727c-2.3,0.1-4.6,0.3-7.1,0.6c-2.4,0.3-4.9,0.5-7.3,0.5c-2.4,0.1-4.8-0.1-7.1-0.5
		c-2.3-0.4-4.5-1.2-6.5-2.3c-1.9-1.1-3.3-2.6-4-4.5c-0.7-1.9-0.9-3.7-0.6-5.6s1.1-3.6,2.4-5.2c1.2-1.6,2.9-2.7,5.1-3.2
		c1-0.2,2.3-0.4,3.8-0.4c1.5-0.1,3.1-0.1,4.6-0.1c1.5,0,2.9,0,4.2,0.1c1.2,0.1,2.2,0.1,2.9,0.1c4.4,0,8.8-0.1,13.2-0.2
		C264,706.1,268.5,706.1,273,706.1z"/>
	<path class="st0" d="M338.1,686.7c-1.9-4-4.4-6-7.3-6.2c-2.9-0.2-6.3,1-10,3.5c-1.8,1.1-3.8,2.7-5.9,4.8c-2.1,2-4.3,3.7-6.5,5.1
		c-2.3,1.4-4.6,2-6.9,2c-2.3,0-4.6-1.4-6.9-4.2c-1.9-2.4-2.6-4.8-2.1-7.3c0.5-2.5,1.6-4.8,3.3-7.1c1.7-2.2,3.7-4.2,6-6
		c2.3-1.8,4.3-3.3,5.9-4.4c3.7-2.7,7.8-4.8,12.2-6.2c4.4-1.4,8.8-2,13.2-1.8c4.4,0.2,8.4,1.4,12.2,3.7c3.8,2.2,6.9,5.6,9.4,10.3
		c2.4,4.4,3.9,8.9,4.6,13.4c0.7,4.5,0.5,8.9-0.5,13.3c-1,4.3-2.8,8.4-5.4,12.2c-2.5,3.9-5.9,7.2-9.9,10.2c-2.5,1.8-5.2,3.6-8.2,5.3
		c-3,1.7-5.9,3.6-8.7,5.6c-2.8,2-5.2,4.3-7.3,6.8c-2.1,2.5-3.5,5.5-4.2,9c1.2,0,3.1,0.1,5.5,0.3c2.4,0.2,5.1,0.4,8,0.5
		c2.9,0.1,5.9,0.1,9-0.2c3.1-0.2,5.9-0.7,8.4-1.5c-0.5,0.5-0.8,0.7-1,0.8c1.7-1.7,3.3-3.3,4.8-4.7c1.5-1.4,3.7-2,6.4-1.8
		c1.9,0.1,3.7,0.8,5.2,2s2.7,2.6,3.5,4.3c0.8,1.7,1.2,3.5,1.1,5.5c-0.1,2-0.8,3.8-2.1,5.4c-2.6,3.2-5.5,5.8-8.7,8
		c-3.2,2.2-6.9,3.2-11.2,3.2h-40.4c-2.6,0-4.9-0.8-6.8-2.5c-1.9-1.7-3.2-3.8-3.7-6.3c-0.5-1.9-0.5-3.8-0.1-5.8
		c0.4-1.9,0.7-3.8,0.9-5.8c0.7-4.6,1.7-8.8,3.1-12.6c1.4-3.7,3.1-7.1,5.3-10.2c2.2-3.1,4.7-5.9,7.7-8.4c3-2.5,6.5-5,10.4-7.4
		c1.8-1,4-2.4,6.6-4.1c2.6-1.7,5-3.6,7.1-5.8c2.2-2.2,3.7-4.5,4.7-7.1C339.8,692,339.6,689.4,338.1,686.7z"/>
	<path class="st0" d="M469.3,761.6c-0.3,2.5-1.2,4.6-2.5,6.4s-2.9,3-4.7,3.7c-1.8,0.7-3.6,0.8-5.6,0.3c-2-0.5-3.8-1.8-5.5-4
		c-1.5-1.8-2.3-3.8-2.5-6c-0.2-2.2-0.5-4.4-0.9-6.5c-1.1-6.2-2.8-12.6-4.9-19.2c-7,0.1-14,0.2-20.9,0.2c-6.9,0-13.8,0.1-20.7,0.2
		c-1,2.9-1.9,5.9-2.6,9c-0.7,3.1-1.4,6.1-2.1,9c-0.6,2.3-1.1,4.6-1.5,7.1c-0.5,2.4-1.5,4.6-3.1,6.4c-1.9,2.3-4,3.5-6.2,3.8
		c-2.2,0.3-4.2-0.1-5.9-1.1c-1.8-1-3.2-2.6-4.2-4.7c-1.1-2.1-1.4-4.5-1.1-7.2c0.3-3.5,1-7,2-10.4c1-3.4,2-6.8,2.9-10.2
		c5.1-19.5,11.7-38.3,19.7-56.6c0.7-1.6,1.4-3.1,2.1-4.6c0.7-1.5,1.4-2.9,2.1-4.4c0.8-1.6,1.6-3.3,2.4-5.1c0.8-1.8,1.7-3.5,2.8-5
		c1.1-1.5,2.3-2.8,3.8-3.9c1.5-1.1,3.3-1.6,5.4-1.6c2.8,0,5.2,0.9,7.1,2.7c7.7,7.7,14,16.4,19,26.1c5,9.7,9.5,19.6,13.4,29.6
		c2.4-0.1,4.7-0.1,7,0c2.3,0.1,4.3,1.1,6.1,3.1c1.6,1.6,2.5,3.3,2.8,5.1c0.3,1.8,0.1,3.6-0.5,5.3c-0.6,1.7-1.6,3.2-3.1,4.4
		c-1.4,1.2-3.1,2.1-5.2,2.5c1.1,4,2.1,8,3,12.1c0.8,4.1,1.6,8.3,2.1,12.5V761.6z M434.7,715.4c-2.2-5.1-4.4-10.2-6.9-15.2
		c-2.4-5-5.2-9.8-8.2-14.4c-2.3,5-4.4,9.9-6.4,14.9c-2,4.9-3.8,9.9-5.5,15c5.3-0.1,10-0.2,14-0.2C425.7,715.6,430,715.5,434.7,715.4
		z"/>
	<path class="st0" d="M522.7,748.7c2.9,0.1,5.4,1,7.3,2.6c1.9,1.6,3.2,3.5,3.7,5.7c0.6,2.2,0.4,4.3-0.5,6.4
		c-0.9,2.1-2.8,3.7-5.6,4.8c-2,0.8-4.4,1.3-7.2,1.5c-2.8,0.2-5.6,0.3-8.3,0.3c-2.8-0.1-5.4-0.2-7.7-0.3c-2.4-0.2-4.2-0.3-5.4-0.3
		h-10c-2.4,0-4.4-0.7-6.1-2s-2.9-2.9-3.7-4.7c-0.7-1.8-0.9-3.7-0.5-5.8c0.4-2,1.4-3.9,3.1-5.6c1.6-1.6,3.7-2.5,6.3-2.7
		c2.6-0.2,5.2-0.2,7.8,0v-67.3c-2.6,0-5,0-7.3-0.1c-2.3-0.1-4.5-0.9-6.8-2.5c-1.7-1.2-2.8-2.7-3.4-4.3c-0.6-1.6-0.7-3.3-0.3-4.9
		c0.4-1.6,1.2-3.2,2.3-4.7c1.1-1.5,2.5-2.5,4.2-3.2c1.6-0.7,3.2-1,4.9-1c5.8,0,11.6,0,17.4-0.1c5.8-0.1,11.7,0,17.6,0.1
		c0.6,0,1.1,0.2,1.6,0.5s1,0.6,1.6,0.8c2.6,1.5,4.4,3.6,5.3,6.3c0.9,2.7,0.6,5.4-1,8c-0.8,1.4-1.8,2.4-3,3.1
		c-1.2,0.7-2.5,1.2-3.9,1.5c-1.4,0.3-2.9,0.4-4.3,0.4c-1.5,0-2.9,0-4.2,0v67.6c0.9,0,1.7,0,2.5-0.1c0.7-0.1,1.6-0.1,2.5-0.3H522.7z"
		/>
</g>
<g>
</g>
<g>
</g>
<g>
</g>
<g>
</g>
<g>
</g>
<g>
</g>
</svg>
